<svg xmlns="http://www.w3.org/2000/svg" width="1600" height="320" viewBox="0 0 1600 320" fill="none">
  <defs>
    <linearGradient id="bg" x1="0" y1="0" x2="0" y2="320" gradientUnits="userSpaceOnUse">
      <stop offset="0" stop-color="#182331"/>
      <stop offset="1" stop-color="#0f1622"/>
    </linearGradient>
    <linearGradient id="slot" x1="0" y1="0" x2="0" y2="1">
      <stop offset="0" stop-color="#242f3f"/>
      <stop offset="1" stop-color="#131c29"/>
    </linearGradient>
  </defs>
  <rect width="1600" height="320" rx="28" fill="url(#bg)"/>
  <rect x="24" y="24" width="1552" height="272" rx="20" stroke="#2f445a" stroke-width="2"/>
  <g transform="translate(70 72)">
    <rect width="1460" height="176" rx="14" fill="#0a111a" stroke="#2b3f53" stroke-width="2"/>
    <g>
      <rect x="24" y="18" width="171" height="140" rx="8" fill="url(#slot)" stroke="#324a61"/>
      <rect x="209" y="18" width="171" height="140" rx="8" fill="url(#slot)" stroke="#324a61"/>
      <rect x="394" y="18" width="171" height="140" rx="8" fill="url(#slot)" stroke="#324a61"/>
      <rect x="579" y="18" width="171" height="140" rx="8" fill="url(#slot)" stroke="#324a61"/>
      <rect x="764" y="18" width="171" height="140" rx="8" fill="url(#slot)" stroke="#324a61"/>
      <rect x="949" y="18" width="171" height="140" rx="8" fill="url(#slot)" stroke="#324a61"/>
      <rect x="1134" y="18" width="171" height="140" rx="8" fill="url(#slot)" stroke="#324a61"/>
      <rect x="1319" y="18" width="117" height="140" rx="8" fill="url(#slot)" stroke="#324a61"/>
    </g>
    <g fill="#17a9cb">
      <rect x="153" y="85" width="16" height="46" rx="3"/>
      <rect x="338" y="85" width="16" height="46" rx="3"/>
      <rect x="523" y="85" width="16" height="46" rx="3"/>
      <rect x="708" y="85" width="16" height="46" rx="3"/>
      <rect x="893" y="85" width="16" height="46" rx="3"/>
      <rect x="1078" y="85" width="16" height="46" rx="3"/>
      <rect x="1263" y="85" width="16" height="46" rx="3"/>
      <rect x="1412" y="85" width="16" height="46" rx="3"/>
    </g>
  </g>
  <circle cx="36" cy="160" r="12" fill="#8fa6b8"/>
  <circle cx="1564" cy="160" r="12" fill="#8fa6b8"/>
</svg>
