<svg xmlns="http://www.w3.org/2000/svg" width="1600" height="320" viewBox="0 0 1600 320" fill="none">
  <defs>
    <linearGradient id="bg2" x1="0" y1="0" x2="0" y2="320" gradientUnits="userSpaceOnUse">
      <stop offset="0" stop-color="#e5edf3"/>
      <stop offset="1" stop-color="#cfdbe5"/>
    </linearGradient>
  </defs>
  <rect width="1600" height="320" rx="28" fill="url(#bg2)"/>
  <rect x="24" y="24" width="1552" height="272" rx="20" stroke="#a7bbc9" stroke-width="2"/>
  <g transform="translate(70 74)">
    <rect width="1460" height="172" rx="14" fill="#dde7ee" stroke="#aabfce" stroke-width="2"/>
    <rect x="20" y="20" width="320" height="132" rx="10" fill="#beced9"/>
    <circle cx="75" cy="86" r="42" fill="#f9fcff" stroke="#8ba2b2" stroke-width="6"/>
    <circle cx="225" cy="86" r="42" fill="#f9fcff" stroke="#8ba2b2" stroke-width="6"/>
    <rect x="360" y="20" width="220" height="132" rx="10" fill="#c8d7e1"/>
    <rect x="598" y="20" width="110" height="60" rx="6" fill="#5f7f95"/>
    <rect x="726" y="20" width="110" height="60" rx="6" fill="#5f7f95"/>
    <rect x="598" y="92" width="238" height="60" rx="6" fill="#9cb4c2"/>
    <rect x="856" y="20" width="170" height="132" rx="10" fill="#cad8e2"/>
    <rect x="1046" y="20" width="394" height="132" rx="10" fill="#d2dfe8"/>
    <g stroke="#6a879a" stroke-width="2">
      <line x1="1066" y1="46" x2="1418" y2="46"/>
      <line x1="1066" y1="66" x2="1418" y2="66"/>
      <line x1="1066" y1="86" x2="1418" y2="86"/>
      <line x1="1066" y1="106" x2="1418" y2="106"/>
      <line x1="1066" y1="126" x2="1418" y2="126"/>
    </g>
  </g>
  <circle cx="36" cy="160" r="12" fill="#7f97aa"/>
  <circle cx="1564" cy="160" r="12" fill="#7f97aa"/>
</svg>
